<?xml version="1.0" encoding="UTF-8" standalone="no"?>
<!DOCTYPE svg PUBLIC "-//W3C//DTD SVG 1.1//EN" "http://www.w3.org/Graphics/SVG/1.1/DTD/svg11.dtd">
<!-- Generated by graphviz version 2.40.1 (20161225.0304)
 -->
<!-- Title: G Pages: 1 -->
<svg width="552pt" height="404pt" viewBox="0.00 0.00 552.44 404.00" xmlns="http://www.w3.org/2000/svg" xmlns:xlink="http://www.w3.org/1999/xlink">
<g id="graph0" class="graph" transform="scale(1 1) rotate(0) translate(4 400)">
<title>G</title>
<polygon fill="#ffffff" stroke="transparent" points="-4,4 -4,-400 548.4352,-400 548.4352,4 -4,4"/>
<!-- dices -->
<g id="node1" class="node">
<title>dices</title>
<ellipse fill="none" stroke="#000000" cx="237.6158" cy="-378" rx="30.7558" ry="18"/>
<text text-anchor="middle" x="237.6158" y="-373.8" font-family="Times,serif" font-size="14.00" fill="#000000">dices</text>
</g>
<!-- entropy -->
<g id="node2" class="node">
<title>entropy</title>
<ellipse fill="none" stroke="#000000" cx="237.6158" cy="-306" rx="40.5712" ry="18"/>
<text text-anchor="middle" x="237.6158" y="-301.8" font-family="Times,serif" font-size="14.00" fill="#000000">entropy</text>
</g>
<!-- dices&#45;&gt;entropy -->
<g id="edge1" class="edge">
<title>dices-&gt;entropy</title>
<path fill="none" stroke="#000000" d="M237.6158,-359.8314C237.6158,-352.131 237.6158,-342.9743 237.6158,-334.4166"/>
<polygon fill="#000000" stroke="#000000" points="241.1159,-334.4132 237.6158,-324.4133 234.1159,-334.4133 241.1159,-334.4132"/>
</g>
<!-- codex32 -->
<g id="node3" class="node">
<title>codex32</title>
<ellipse fill="none" stroke="#000000" cx="180.6158" cy="-234" rx="43.506" ry="18"/>
<text text-anchor="middle" x="180.6158" y="-229.8" font-family="Times,serif" font-size="14.00" fill="#000000">codex32</text>
</g>
<!-- entropy&#45;&gt;codex32 -->
<g id="edge2" class="edge">
<title>entropy-&gt;codex32</title>
<path fill="none" stroke="#000000" d="M224.1076,-288.937C217.1118,-280.1003 208.4313,-269.1354 200.6696,-259.3311"/>
<polygon fill="#000000" stroke="#000000" points="203.3742,-257.1087 194.423,-251.4407 197.8859,-261.4536 203.3742,-257.1087"/>
</g>
<!-- mnemonic -->
<g id="node4" class="node">
<title>mnemonic</title>
<ellipse fill="none" stroke="#000000" cx="294.6158" cy="-234" rx="51.6073" ry="18"/>
<text text-anchor="middle" x="294.6158" y="-229.8" font-family="Times,serif" font-size="14.00" fill="#000000">mnemonic</text>
</g>
<!-- entropy&#45;&gt;mnemonic -->
<g id="edge3" class="edge">
<title>entropy-&gt;mnemonic</title>
<path fill="none" stroke="#000000" d="M251.124,-288.937C258.1198,-280.1003 266.8003,-269.1354 274.562,-259.3311"/>
<polygon fill="#000000" stroke="#000000" points="277.3457,-261.4536 280.8086,-251.4407 271.8574,-257.1087 277.3457,-261.4536"/>
</g>
<!-- seed -->
<g id="node5" class="node">
<title>seed</title>
<ellipse fill="none" stroke="#000000" cx="237.6158" cy="-162" rx="28.3893" ry="18"/>
<text text-anchor="middle" x="237.6158" y="-157.8" font-family="Times,serif" font-size="14.00" fill="#000000">seed</text>
</g>
<!-- codex32&#45;&gt;seed -->
<g id="edge4" class="edge">
<title>codex32-&gt;seed</title>
<path fill="none" stroke="#000000" d="M194.4139,-216.5708C201.6213,-207.4668 210.556,-196.1808 218.4265,-186.2391"/>
<polygon fill="#000000" stroke="#000000" points="221.2632,-188.2946 224.7261,-178.2817 215.7749,-183.9497 221.2632,-188.2946"/>
</g>
<!-- mnemonic&#45;&gt;seed -->
<g id="edge5" class="edge">
<title>mnemonic-&gt;seed</title>
<path fill="none" stroke="#000000" d="M280.8177,-216.5708C273.6103,-207.4668 264.6756,-196.1808 256.8051,-186.2391"/>
<polygon fill="#000000" stroke="#000000" points="259.4567,-183.9497 250.5055,-178.2817 253.9684,-188.2946 259.4567,-183.9497"/>
</g>
<!-- xpub -->
<g id="node6" class="node">
<title>xpub</title>
<ellipse fill="#ffcccc" stroke="#000000" cx="199.6158" cy="-90" rx="30.2015" ry="18"/>
<text text-anchor="middle" x="199.6158" y="-85.8" font-family="Times,serif" font-size="14.00" fill="#000000">xpub</text>
</g>
<!-- seed&#45;&gt;xpub -->
<g id="edge6" class="edge">
<title>seed-&gt;xpub</title>
<path fill="none" stroke="#000000" d="M228.6103,-144.937C224.133,-136.4537 218.6206,-126.0092 213.6088,-116.513"/>
<polygon fill="#000000" stroke="#000000" points="216.5836,-114.6509 208.8206,-107.4407 210.3929,-117.9182 216.5836,-114.6509"/>
</g>
<!-- xprv -->
<g id="node8" class="node">
<title>xprv</title>
<ellipse fill="none" stroke="#000000" cx="326.6158" cy="-90" rx="28.9754" ry="18"/>
<text text-anchor="middle" x="326.6158" y="-85.8" font-family="Times,serif" font-size="14.00" fill="#000000">xprv</text>
</g>
<!-- seed&#45;&gt;xprv -->
<g id="edge8" class="edge">
<title>seed-&gt;xprv</title>
<path fill="none" stroke="#000000" d="M255.1993,-147.7751C268.1577,-137.2919 285.9938,-122.8628 300.5993,-111.0471"/>
<polygon fill="#000000" stroke="#000000" points="303.191,-113.4524 308.7642,-104.4418 298.7883,-108.0102 303.191,-113.4524"/>
</g>
<!-- public_descriptor -->
<g id="node7" class="node">
<title>public_descriptor</title>
<ellipse fill="#ffcccc" stroke="#000000" cx="78.6158" cy="-18" rx="78.7318" ry="18"/>
<text text-anchor="middle" x="78.6158" y="-13.8" font-family="Times,serif" font-size="14.00" fill="#000000">public_descriptor</text>
</g>
<!-- xpub&#45;&gt;public_descriptor -->
<g id="edge7" class="edge">
<title>xpub-&gt;public_descriptor</title>
<path fill="none" stroke="#000000" d="M177.9834,-77.1278C160.693,-66.8393 136.0577,-52.1803 115.6427,-40.0325"/>
<polygon fill="#000000" stroke="#000000" points="117.2777,-36.9327 106.8942,-34.8268 113.6981,-42.9483 117.2777,-36.9327"/>
</g>
<!-- private_descriptor -->
<g id="node9" class="node">
<title>private_descriptor</title>
<ellipse fill="none" stroke="#000000" cx="256.6158" cy="-18" rx="81.0782" ry="18"/>
<text text-anchor="middle" x="256.6158" y="-13.8" font-family="Times,serif" font-size="14.00" fill="#000000">private_descriptor</text>
</g>
<!-- xprv&#45;&gt;private_descriptor -->
<g id="edge9" class="edge">
<title>xprv-&gt;private_descriptor</title>
<path fill="none" stroke="#000000" d="M311.4268,-74.3771C302.4964,-65.1915 291.0003,-53.3669 280.8446,-42.9211"/>
<polygon fill="#000000" stroke="#000000" points="283.2228,-40.3463 273.7425,-35.6161 278.2039,-45.2258 283.2228,-40.3463"/>
</g>
<!-- identity -->
<g id="node10" class="node">
<title>identity</title>
<ellipse fill="none" stroke="#000000" cx="396.6158" cy="-18" rx="40.5867" ry="18"/>
<text text-anchor="middle" x="396.6158" y="-13.8" font-family="Times,serif" font-size="14.00" fill="#000000">identity</text>
</g>
<!-- xprv&#45;&gt;identity -->
<g id="edge10" class="edge">
<title>xprv-&gt;identity</title>
<path fill="none" stroke="#000000" d="M341.8048,-74.3771C350.994,-64.9253 362.8999,-52.6792 373.2666,-42.0163"/>
<polygon fill="#000000" stroke="#000000" points="376.0209,-44.2043 380.4822,-34.5945 371.0019,-39.3247 376.0209,-44.2043"/>
</g>
<!-- recipient -->
<g id="node11" class="node">
<title>recipient</title>
<ellipse fill="#ffcccc" stroke="#000000" cx="499.6158" cy="-18" rx="44.6395" ry="18"/>
<text text-anchor="middle" x="499.6158" y="-13.8" font-family="Times,serif" font-size="14.00" fill="#000000">recipient</text>
</g>
<!-- xprv&#45;&gt;recipient -->
<g id="edge11" class="edge">
<title>xprv-&gt;recipient</title>
<path fill="none" stroke="#000000" d="M350.6707,-79.9887C378.6408,-68.348 425.2629,-48.9446 458.9035,-34.9439"/>
<polygon fill="#000000" stroke="#000000" points="460.5683,-38.0421 468.4558,-30.9683 457.8786,-31.5794 460.5683,-38.0421"/>
</g>
</g>
</svg>