<?xml version="1.0" encoding="UTF-8" standalone="no"?>
<!DOCTYPE svg PUBLIC "-//W3C//DTD SVG 1.1//EN" "http://www.w3.org/Graphics/SVG/1.1/DTD/svg11.dtd">
<!-- Generated by graphviz version 2.40.1 (20161225.0304)
 -->
<!-- Title: G Pages: 1 -->
<svg width="644pt" height="389pt" viewBox="0.00 0.00 644.20 389.20" xmlns="http://www.w3.org/2000/svg" xmlns:xlink="http://www.w3.org/1999/xlink">
<g id="graph0" class="graph" transform="scale(1 1) rotate(0) translate(4 385.2)">
<title>G</title>
<polygon fill="#ffffff" stroke="transparent" points="-4,4 -4,-385.2 640.2032,-385.2 640.2032,4 -4,4"/>
<g id="clust1" class="cluster">
<title>cluster_0</title>
<polygon fill="#d3d3d3" stroke="#d3d3d3" points="223.6158,-169.6 223.6158,-373.2 449.6158,-373.2 449.6158,-169.6 223.6158,-169.6"/>
<text text-anchor="middle" x="336.6158" y="-356.6" font-family="Times,serif" font-size="14.00" fill="#000000">seed</text>
</g>
<!-- dices -->
<g id="node1" class="node">
<title>dices</title>
<ellipse fill="#ffa500" stroke="#000000" cx="332.6158" cy="-322.4" rx="30.7558" ry="18"/>
<text text-anchor="middle" x="332.6158" y="-318.2" font-family="Times,serif" font-size="14.00" fill="#000000">dices</text>
</g>
<!-- codex32 -->
<g id="node2" class="node">
<title>codex32</title>
<ellipse fill="#ffa500" stroke="#000000" cx="275.6158" cy="-195.6" rx="43.506" ry="18"/>
<text text-anchor="middle" x="275.6158" y="-191.4" font-family="Times,serif" font-size="14.00" fill="#000000">codex32</text>
</g>
<!-- dices&#45;&gt;codex32 -->
<g id="edge1" class="edge">
<title>dices-&gt;codex32</title>
<path fill="none" stroke="#000000" d="M324.6902,-304.769C315.1304,-283.5026 298.9574,-247.5248 287.806,-222.7178"/>
<polygon fill="#000000" stroke="#000000" points="290.9503,-221.1758 283.6579,-213.49 284.5657,-224.0459 290.9503,-221.1758"/>
<text text-anchor="middle" x="327.6123" y="-254.8" font-family="Courier,monospace" font-size="14.00" fill="#000000"> seed</text>
</g>
<!-- mnemonic -->
<g id="node3" class="node">
<title>mnemonic</title>
<ellipse fill="#ffa500" stroke="#000000" cx="389.6158" cy="-195.6" rx="51.6073" ry="18"/>
<text text-anchor="middle" x="389.6158" y="-191.4" font-family="Times,serif" font-size="14.00" fill="#000000">mnemonic</text>
</g>
<!-- dices&#45;&gt;mnemonic -->
<g id="edge2" class="edge">
<title>dices-&gt;mnemonic</title>
<path fill="none" stroke="#000000" d="M340.5414,-304.769C350.1012,-283.5026 366.2742,-247.5248 377.4256,-222.7178"/>
<polygon fill="#000000" stroke="#000000" points="380.6659,-224.0459 381.5738,-213.49 374.2814,-221.1758 380.6659,-224.0459"/>
</g>
<!-- xprv -->
<g id="node4" class="node">
<title>xprv</title>
<ellipse fill="#ffa500" stroke="#000000" cx="331.6158" cy="-106.8" rx="28.9754" ry="18"/>
<text text-anchor="middle" x="331.6158" y="-102.6" font-family="Times,serif" font-size="14.00" fill="#000000">xprv</text>
</g>
<!-- codex32&#45;&gt;xprv -->
<g id="edge3" class="edge">
<title>codex32-&gt;xprv</title>
<path fill="none" stroke="#000000" d="M279.6473,-177.5343C282.5632,-166.8665 287.2047,-153.4166 294.0284,-142.8 297.346,-137.6383 301.5483,-132.682 305.9325,-128.1852"/>
<polygon fill="#000000" stroke="#000000" points="308.5419,-130.533 313.3584,-121.0963 303.7083,-125.4697 308.5419,-130.533"/>
<text text-anchor="middle" x="331.4095" y="-147" font-family="Courier,monospace" font-size="14.00" fill="#000000">xkey m/0h</text>
</g>
<!-- mnemonic&#45;&gt;xprv -->
<g id="edge4" class="edge">
<title>mnemonic-&gt;xprv</title>
<path fill="none" stroke="#000000" d="M384.9814,-177.5281C381.7235,-166.858 376.6764,-153.4081 369.6158,-142.8 366.1965,-137.6628 361.9175,-132.7179 357.4754,-128.2248"/>
<polygon fill="#000000" stroke="#000000" points="359.6421,-125.457 349.9687,-121.1355 354.8359,-130.5462 359.6421,-125.457"/>
</g>
<!-- public_descriptor -->
<g id="node5" class="node">
<title>public_descriptor</title>
<ellipse fill="none" stroke="#000000" cx="78.6158" cy="-18" rx="78.7318" ry="18"/>
<text text-anchor="middle" x="78.6158" y="-13.8" font-family="Times,serif" font-size="14.00" fill="#000000">public_descriptor</text>
</g>
<!-- xprv&#45;&gt;public_descriptor -->
<g id="edge5" class="edge">
<title>xprv-&gt;public_descriptor</title>
<path fill="none" stroke="#000000" d="M302.8276,-105.8235C247.8353,-103.4082 130.5593,-95.4381 99.6438,-70.8 91.8806,-64.6131 86.9715,-55.134 83.8722,-45.9061"/>
<polygon fill="#000000" stroke="#000000" points="87.2144,-44.8605 81.1701,-36.159 80.4688,-46.7306 87.2144,-44.8605"/>
<text text-anchor="middle" x="184.6018" y="-58.2" font-family="Courier,monospace" font-size="14.00" fill="#000000"> descriptor --public</text>
</g>
<!-- private_descriptor -->
<g id="node6" class="node">
<title>private_descriptor</title>
<ellipse fill="none" stroke="#000000" cx="263.6158" cy="-18" rx="81.0782" ry="18"/>
<text text-anchor="middle" x="263.6158" y="-13.8" font-family="Times,serif" font-size="14.00" fill="#000000">private_descriptor</text>
</g>
<!-- xprv&#45;&gt;private_descriptor -->
<g id="edge6" class="edge">
<title>xprv-&gt;private_descriptor</title>
<path fill="none" stroke="#000000" d="M308.7657,-95.725C298.4121,-89.6641 286.8181,-81.2468 279.2312,-70.8 274.0397,-63.6515 270.5614,-54.7828 268.236,-46.3675"/>
<polygon fill="#000000" stroke="#000000" points="271.6091,-45.4203 265.9336,-36.4739 264.7913,-47.007 271.6091,-45.4203"/>
<text text-anchor="middle" x="324.8081" y="-58.2" font-family="Courier,monospace" font-size="14.00" fill="#000000"> descriptor</text>
</g>
<!-- identity -->
<g id="node7" class="node">
<title>identity</title>
<ellipse fill="none" stroke="#000000" cx="403.6158" cy="-18" rx="40.5867" ry="18"/>
<text text-anchor="middle" x="403.6158" y="-13.8" font-family="Times,serif" font-size="14.00" fill="#000000">identity</text>
</g>
<!-- xprv&#45;&gt;identity -->
<g id="edge7" class="edge">
<title>xprv-&gt;identity</title>
<path fill="none" stroke="#000000" d="M349.814,-92.4094C357.0575,-86.1946 365.1819,-78.5729 371.6158,-70.8 378.1408,-62.9171 384.2494,-53.5706 389.3448,-44.9484"/>
<polygon fill="#000000" stroke="#000000" points="392.5442,-46.4027 394.4479,-35.9803 386.4602,-42.9407 392.5442,-46.4027"/>
<text text-anchor="middle" x="462.4025" y="-58.2" font-family="Courier,monospace" font-size="14.00" fill="#000000"> identity --private</text>
</g>
<!-- recipient -->
<g id="node8" class="node">
<title>recipient</title>
<ellipse fill="none" stroke="#000000" cx="576.6158" cy="-18" rx="44.6395" ry="18"/>
<text text-anchor="middle" x="576.6158" y="-13.8" font-family="Times,serif" font-size="14.00" fill="#000000">recipient</text>
</g>
<!-- xprv&#45;&gt;recipient -->
<g id="edge8" class="edge">
<title>xprv-&gt;recipient</title>
<path fill="none" stroke="#000000" d="M360.4298,-105.0205C411.8911,-101.354 516.9913,-91.5052 546.6158,-70.8 555.5598,-64.5489 562.1754,-54.7219 566.8834,-45.2322"/>
<polygon fill="#000000" stroke="#000000" points="570.1228,-46.5608 570.9711,-36 563.7222,-43.7268 570.1228,-46.5608"/>
<text text-anchor="middle" x="598.4095" y="-58.2" font-family="Courier,monospace" font-size="14.00" fill="#000000"> identity</text>
</g>
</g>
</svg>