<?xml version="1.0" encoding="UTF-8" standalone="no"?>
<!DOCTYPE svg PUBLIC "-//W3C//DTD SVG 1.1//EN"
 "http://www.w3.org/Graphics/SVG/1.1/DTD/svg11.dtd">
<!-- Generated by graphviz version 2.40.1 (20161225.0304)
 -->
<!-- Title: G Pages: 1 -->
<svg width="648pt" height="222pt"
 viewBox="0.00 0.00 648.20 221.60" xmlns="http://www.w3.org/2000/svg" xmlns:xlink="http://www.w3.org/1999/xlink">
<g id="graph0" class="graph" transform="scale(1 1) rotate(0) translate(4 217.6)">
<title>G</title>
<polygon fill="#ffffff" stroke="transparent" points="-4,4 -4,-217.6 644.2032,-217.6 644.2032,4 -4,4"/>
<!-- dices -->
<g id="node1" class="node">
<title>dices</title>
<ellipse fill="#ffa500" stroke="#000000" cx="326.6158" cy="-195.6" rx="30.7558" ry="18"/>
<text text-anchor="middle" x="326.6158" y="-191.4" font-family="Times,serif" font-size="14.00" fill="#000000">dices</text>
</g>
<!-- codex32_or_mnemonic -->
<g id="node2" class="node">
<title>codex32_or_mnemonic</title>
<ellipse fill="#ffa500" stroke="#000000" cx="326.6158" cy="-106.8" rx="102.4391" ry="18"/>
<text text-anchor="middle" x="326.6158" y="-102.6" font-family="Times,serif" font-size="14.00" fill="#000000">codex32_or_mnemonic</text>
</g>
<!-- dices&#45;&gt;codex32_or_mnemonic -->
<g id="edge1" class="edge">
<title>dices&#45;&gt;codex32_or_mnemonic</title>
<path fill="none" stroke="#000000" d="M326.6158,-177.2006C326.6158,-165.0949 326.6158,-149.0076 326.6158,-135.2674"/>
<polygon fill="#000000" stroke="#000000" points="330.1159,-134.872 326.6158,-124.872 323.1159,-134.8721 330.1159,-134.872"/>
<text text-anchor="middle" x="347.6123" y="-147" font-family="Courier,monospace" font-size="14.00" fill="#000000"> seed</text>
</g>
<!-- public_descriptor -->
<g id="node3" class="node">
<title>public_descriptor</title>
<ellipse fill="none" stroke="#000000" cx="78.6158" cy="-18" rx="78.7318" ry="18"/>
<text text-anchor="middle" x="78.6158" y="-13.8" font-family="Times,serif" font-size="14.00" fill="#000000">public_descriptor</text>
</g>
<!-- codex32_or_mnemonic&#45;&gt;public_descriptor -->
<g id="edge2" class="edge">
<title>codex32_or_mnemonic&#45;&gt;public_descriptor</title>
<path fill="none" stroke="#000000" d="M230.6389,-100.5763C179.0013,-95.4782 121.8517,-86.4544 101.6438,-70.8 93.6898,-64.6383 88.4309,-55.1646 84.9774,-45.9339"/>
<polygon fill="#000000" stroke="#000000" points="88.2463,-44.6623 81.8963,-36.1812 81.5714,-46.771 88.2463,-44.6623"/>
<text text-anchor="middle" x="186.6018" y="-58.2" font-family="Courier,monospace" font-size="14.00" fill="#000000"> descriptor &#45;&#45;public</text>
</g>
<!-- private_descriptor -->
<g id="node4" class="node">
<title>private_descriptor</title>
<ellipse fill="#ffff00" stroke="#000000" cx="263.6158" cy="-18" rx="81.0782" ry="18"/>
<text text-anchor="middle" x="263.6158" y="-13.8" font-family="Times,serif" font-size="14.00" fill="#000000">private_descriptor</text>
</g>
<!-- codex32_or_mnemonic&#45;&gt;private_descriptor -->
<g id="edge3" class="edge">
<title>codex32_or_mnemonic&#45;&gt;private_descriptor</title>
<path fill="none" stroke="#000000" d="M299.9353,-89.1085C293.4635,-83.8286 287.0339,-77.6113 282.2312,-70.8 277.0546,-63.4584 273.1895,-54.5359 270.3635,-46.131"/>
<polygon fill="#000000" stroke="#000000" points="273.6344,-44.8527 267.4137,-36.2764 266.9284,-46.8602 273.6344,-44.8527"/>
<text text-anchor="middle" x="328.8081" y="-58.2" font-family="Courier,monospace" font-size="14.00" fill="#000000"> descriptor</text>
</g>
<!-- identity -->
<g id="node5" class="node">
<title>identity</title>
<ellipse fill="#ffff00" stroke="#000000" cx="403.6158" cy="-18" rx="40.5867" ry="18"/>
<text text-anchor="middle" x="403.6158" y="-13.8" font-family="Times,serif" font-size="14.00" fill="#000000">identity</text>
</g>
<!-- codex32_or_mnemonic&#45;&gt;identity -->
<g id="edge4" class="edge">
<title>codex32_or_mnemonic&#45;&gt;identity</title>
<path fill="none" stroke="#000000" d="M353.9866,-89.3958C361.2294,-83.9945 368.6758,-77.6443 374.6158,-70.8 381.2608,-63.1434 387.0315,-53.7146 391.6373,-44.9535"/>
<polygon fill="#000000" stroke="#000000" points="394.8572,-46.3384 396.1641,-35.8245 388.5859,-43.2286 394.8572,-46.3384"/>
<text text-anchor="middle" x="466.4025" y="-58.2" font-family="Courier,monospace" font-size="14.00" fill="#000000"> identity &#45;&#45;private</text>
</g>
<!-- recipient -->
<g id="node6" class="node">
<title>recipient</title>
<ellipse fill="none" stroke="#000000" cx="579.6158" cy="-18" rx="44.6395" ry="18"/>
<text text-anchor="middle" x="579.6158" y="-13.8" font-family="Times,serif" font-size="14.00" fill="#000000">recipient</text>
</g>
<!-- codex32_or_mnemonic&#45;&gt;recipient -->
<g id="edge5" class="edge">
<title>codex32_or_mnemonic&#45;&gt;recipient</title>
<path fill="none" stroke="#000000" d="M421.0796,-99.91C472.4731,-94.5674 529.7293,-85.5209 550.6158,-70.8 559.4634,-64.5641 565.8972,-54.7401 570.4226,-45.2485"/>
<polygon fill="#000000" stroke="#000000" points="573.6569,-46.5864 574.3308,-36.013 567.2103,-43.8584 573.6569,-46.5864"/>
<text text-anchor="middle" x="602.4095" y="-58.2" font-family="Courier,monospace" font-size="14.00" fill="#000000"> identity</text>
</g>
</g>
</svg>